<?xml version="1.0" encoding="UTF-8" standalone="no"?>
<!DOCTYPE svg PUBLIC "-//W3C//DTD SVG 1.1//EN"
 "http://www.w3.org/Graphics/SVG/1.1/DTD/svg11.dtd">
<!-- Generated by graphviz version 14.1.2 (0)
 -->
<!-- Title: ActivityDiagram Pages: 1 -->
<svg width="848pt" height="1087pt"
 viewBox="0.00 0.00 848.00 1087.00" xmlns="http://www.w3.org/2000/svg" xmlns:xlink="http://www.w3.org/1999/xlink">
<g id="graph0" class="graph" transform="scale(1 1) rotate(0) translate(4 1083)">
<title>ActivityDiagram</title>
<polygon fill="white" stroke="none" points="-4,4 -4,-1083 843.71,-1083 843.71,4 -4,4"/>
<!-- start -->
<g id="node1" class="node">
<title>start</title>
<ellipse fill="none" stroke="black" cx="466.71" cy="-1061" rx="18" ry="18"/>
<text xml:space="preserve" text-anchor="middle" x="466.71" y="-1055.58" font-family="Arial" font-size="14.00">Start</text>
</g>
<!-- init -->
<g id="node2" class="node">
<title>init</title>
<path fill="none" stroke="black" d="M544.09,-1006C544.09,-1006 389.34,-1006 389.34,-1006 383.34,-1006 377.34,-1000 377.34,-994 377.34,-994 377.34,-978.5 377.34,-978.5 377.34,-972.5 383.34,-966.5 389.34,-966.5 389.34,-966.5 544.09,-966.5 544.09,-966.5 550.09,-966.5 556.09,-972.5 556.09,-978.5 556.09,-978.5 556.09,-994 556.09,-994 556.09,-1000 550.09,-1006 544.09,-1006"/>
<text xml:space="preserve" text-anchor="middle" x="466.71" y="-988.7" font-family="Arial" font-size="14.00">Alle Ampeln auf Rot setzen</text>
<text xml:space="preserve" text-anchor="middle" x="466.71" y="-972.95" font-family="Arial" font-size="14.00">Anforderungen löschen</text>
</g>
<!-- start&#45;&gt;init -->
<g id="edge1" class="edge">
<title>start&#45;&gt;init</title>
<path fill="none" stroke="black" d="M466.71,-1042.76C466.71,-1035.25 466.71,-1026.22 466.71,-1017.64"/>
<polygon fill="black" stroke="black" points="470.21,-1017.93 466.71,-1007.93 463.21,-1017.93 470.21,-1017.93"/>
</g>
<!-- wait -->
<g id="node3" class="node">
<title>wait</title>
<path fill="none" stroke="black" d="M582.34,-929.5C582.34,-929.5 351.09,-929.5 351.09,-929.5 345.09,-929.5 339.09,-923.5 339.09,-917.5 339.09,-917.5 339.09,-905.5 339.09,-905.5 339.09,-899.5 345.09,-893.5 351.09,-893.5 351.09,-893.5 582.34,-893.5 582.34,-893.5 588.34,-893.5 594.34,-899.5 594.34,-905.5 594.34,-905.5 594.34,-917.5 594.34,-917.5 594.34,-923.5 588.34,-929.5 582.34,-929.5"/>
<text xml:space="preserve" text-anchor="middle" x="466.71" y="-906.08" font-family="Arial" font-size="14.00">Auf Timer oder Benutzerereignis warten</text>
</g>
<!-- init&#45;&gt;wait -->
<g id="edge2" class="edge">
<title>init&#45;&gt;wait</title>
<path fill="none" stroke="black" d="M466.71,-966.14C466.71,-958.47 466.71,-949.47 466.71,-941.05"/>
<polygon fill="black" stroke="black" points="470.21,-941.26 466.71,-931.26 463.21,-941.26 470.21,-941.26"/>
</g>
<!-- input1 -->
<g id="node4" class="node">
<title>input1</title>
<path fill="none" stroke="black" d="M356.71,-856.5C356.71,-856.5 244.71,-856.5 244.71,-856.5 238.71,-856.5 232.71,-850.5 232.71,-844.5 232.71,-844.5 232.71,-829 232.71,-829 232.71,-823 238.71,-817 244.71,-817 244.71,-817 356.71,-817 356.71,-817 362.71,-817 368.71,-823 368.71,-829 368.71,-829 368.71,-844.5 368.71,-844.5 368.71,-850.5 362.71,-856.5 356.71,-856.5"/>
<text xml:space="preserve" text-anchor="middle" x="300.71" y="-839.2" font-family="Arial" font-size="14.00">Bodenkontakt klickt:</text>
<text xml:space="preserve" text-anchor="middle" x="300.71" y="-823.45" font-family="Arial" font-size="14.00">Status toggeln</text>
</g>
<!-- wait&#45;&gt;input1 -->
<g id="edge3" class="edge">
<title>wait&#45;&gt;input1</title>
<path fill="none" stroke="black" d="M421.09,-893.07C398.67,-883.68 371.71,-871.94 348.95,-861.69"/>
<polygon fill="black" stroke="black" points="350.42,-858.52 339.87,-857.58 347.53,-864.89 350.42,-858.52"/>
</g>
<!-- input2 -->
<g id="node5" class="node">
<title>input2</title>
<path fill="none" stroke="black" d="M535.09,-856.5C535.09,-856.5 398.34,-856.5 398.34,-856.5 392.34,-856.5 386.34,-850.5 386.34,-844.5 386.34,-844.5 386.34,-829 386.34,-829 386.34,-823 392.34,-817 398.34,-817 398.34,-817 535.09,-817 535.09,-817 541.09,-817 547.09,-823 547.09,-829 547.09,-829 547.09,-844.5 547.09,-844.5 547.09,-850.5 541.09,-856.5 535.09,-856.5"/>
<text xml:space="preserve" text-anchor="middle" x="466.71" y="-839.2" font-family="Arial" font-size="14.00">Fußgänger&#45;Taster klickt:</text>
<text xml:space="preserve" text-anchor="middle" x="466.71" y="-823.45" font-family="Arial" font-size="14.00">Anforderung setzen</text>
</g>
<!-- wait&#45;&gt;input2 -->
<g id="edge4" class="edge">
<title>wait&#45;&gt;input2</title>
<path fill="none" stroke="black" d="M460.87,-893.26C460.08,-885.75 459.81,-876.72 460.04,-868.14"/>
<polygon fill="black" stroke="black" points="463.52,-868.61 460.6,-858.43 456.53,-868.21 463.52,-868.61"/>
</g>
<!-- update -->
<g id="node6" class="node">
<title>update</title>
<path fill="none" stroke="black" d="M748.34,-856.5C748.34,-856.5 577.09,-856.5 577.09,-856.5 571.09,-856.5 565.09,-850.5 565.09,-844.5 565.09,-844.5 565.09,-829 565.09,-829 565.09,-823 571.09,-817 577.09,-817 577.09,-817 748.34,-817 748.34,-817 754.34,-817 760.34,-823 760.34,-829 760.34,-829 760.34,-844.5 760.34,-844.5 760.34,-850.5 754.34,-856.5 748.34,-856.5"/>
<text xml:space="preserve" text-anchor="middle" x="662.71" y="-839.2" font-family="Arial" font-size="14.00">Fahrzeuge bei Grün bewegen</text>
<text xml:space="preserve" text-anchor="middle" x="662.71" y="-823.45" font-family="Arial" font-size="14.00">Kollision prüfen</text>
</g>
<!-- wait&#45;&gt;update -->
<g id="edge7" class="edge">
<title>wait&#45;&gt;update</title>
<path fill="none" stroke="black" d="M513.66,-893.07C539.67,-883.42 572.33,-871.3 600.45,-860.86"/>
<polygon fill="black" stroke="black" points="601.4,-864.24 609.56,-857.48 598.97,-857.68 601.4,-864.24"/>
</g>
<!-- input1&#45;&gt;wait -->
<g id="edge5" class="edge">
<title>input1&#45;&gt;wait</title>
<path fill="none" stroke="black" d="M350.55,-856.95C373.4,-866.58 400.21,-878.3 422.35,-888.31"/>
<polygon fill="black" stroke="black" points="420.88,-891.49 431.43,-892.45 423.78,-885.12 420.88,-891.49"/>
</g>
<!-- input2&#45;&gt;wait -->
<g id="edge6" class="edge">
<title>input2&#45;&gt;wait</title>
<path fill="none" stroke="black" d="M472.74,-856.91C473.43,-864.58 473.63,-873.57 473.32,-881.97"/>
<polygon fill="black" stroke="black" points="469.84,-881.53 472.65,-891.75 476.82,-882.01 469.84,-881.53"/>
</g>
<!-- choose -->
<g id="node7" class="node">
<title>choose</title>
<path fill="none" stroke="black" d="M599,-777.38C599,-777.38 445.92,-743.12 445.92,-743.12 440.07,-741.81 440.07,-739.19 445.92,-737.88 445.92,-737.88 599,-703.62 599,-703.62 604.86,-702.31 616.57,-702.31 622.42,-703.62 622.42,-703.62 775.5,-737.88 775.5,-737.88 781.36,-739.19 781.36,-741.81 775.5,-743.12 775.5,-743.12 622.42,-777.38 622.42,-777.38 616.57,-778.69 604.86,-778.69 599,-777.38"/>
<text xml:space="preserve" text-anchor="middle" x="610.71" y="-742.95" font-family="Arial" font-size="14.00">Nächste Richtung wählen?</text>
<text xml:space="preserve" text-anchor="middle" x="610.71" y="-727.2" font-family="Arial" font-size="14.00">(NS oder EW)</text>
</g>
<!-- update&#45;&gt;choose -->
<g id="edge8" class="edge">
<title>update&#45;&gt;choose</title>
<path fill="none" stroke="black" d="M652.19,-816.68C647.28,-807.78 641.21,-796.79 635.25,-785.98"/>
<polygon fill="black" stroke="black" points="638.47,-784.57 630.57,-777.5 632.34,-787.95 638.47,-784.57"/>
</g>
<!-- nsauto -->
<g id="node8" class="node">
<title>nsauto</title>
<path fill="none" stroke="black" d="M500.34,-647.75C500.34,-647.75 377.09,-647.75 377.09,-647.75 371.09,-647.75 365.09,-641.75 365.09,-635.75 365.09,-635.75 365.09,-620.25 365.09,-620.25 365.09,-614.25 371.09,-608.25 377.09,-608.25 377.09,-608.25 500.34,-608.25 500.34,-608.25 506.34,-608.25 512.34,-614.25 512.34,-620.25 512.34,-620.25 512.34,-635.75 512.34,-635.75 512.34,-641.75 506.34,-647.75 500.34,-647.75"/>
<text xml:space="preserve" text-anchor="middle" x="438.71" y="-630.45" font-family="Arial" font-size="14.00">NS_AutoGruen</text>
<text xml:space="preserve" text-anchor="middle" x="438.71" y="-614.7" font-family="Arial" font-size="14.00">(N/S&#45;Fahrzeuge grün)</text>
</g>
<!-- choose&#45;&gt;nsauto -->
<g id="edge9" class="edge">
<title>choose&#45;&gt;nsauto</title>
<path fill="none" stroke="black" d="M552.36,-713.72C534.57,-704.91 515.34,-694.38 498.71,-683 487.17,-675.1 475.51,-665.16 465.58,-655.97"/>
<polygon fill="black" stroke="black" points="468.1,-653.53 458.44,-649.19 463.28,-658.61 468.1,-653.53"/>
<text xml:space="preserve" text-anchor="middle" x="552.71" y="-669.7" font-family="Times,serif" font-size="14.00">NS ausgewählt</text>
</g>
<!-- ewauto -->
<g id="node15" class="node">
<title>ewauto</title>
<path fill="none" stroke="black" d="M674.96,-647.75C674.96,-647.75 546.46,-647.75 546.46,-647.75 540.46,-647.75 534.46,-641.75 534.46,-635.75 534.46,-635.75 534.46,-620.25 534.46,-620.25 534.46,-614.25 540.46,-608.25 546.46,-608.25 546.46,-608.25 674.96,-608.25 674.96,-608.25 680.96,-608.25 686.96,-614.25 686.96,-620.25 686.96,-620.25 686.96,-635.75 686.96,-635.75 686.96,-641.75 680.96,-647.75 674.96,-647.75"/>
<text xml:space="preserve" text-anchor="middle" x="610.71" y="-630.45" font-family="Arial" font-size="14.00">EW_AutoGruen</text>
<text xml:space="preserve" text-anchor="middle" x="610.71" y="-614.7" font-family="Arial" font-size="14.00">(O/W&#45;Fahrzeuge grün)</text>
</g>
<!-- choose&#45;&gt;ewauto -->
<g id="edge10" class="edge">
<title>choose&#45;&gt;ewauto</title>
<path fill="none" stroke="black" d="M610.71,-700.54C610.71,-687.07 610.71,-672.19 610.71,-659.5"/>
<polygon fill="black" stroke="black" points="614.21,-659.64 610.71,-649.64 607.21,-659.64 614.21,-659.64"/>
<text xml:space="preserve" text-anchor="middle" x="666.21" y="-669.7" font-family="Times,serif" font-size="14.00">EW ausgewählt</text>
</g>
<!-- nsrotgelb -->
<g id="node9" class="node">
<title>nsrotgelb</title>
<path fill="none" stroke="black" d="M449.96,-571.25C449.96,-571.25 381.46,-571.25 381.46,-571.25 375.46,-571.25 369.46,-565.25 369.46,-559.25 369.46,-559.25 369.46,-547.25 369.46,-547.25 369.46,-541.25 375.46,-535.25 381.46,-535.25 381.46,-535.25 449.96,-535.25 449.96,-535.25 455.96,-535.25 461.96,-541.25 461.96,-547.25 461.96,-547.25 461.96,-559.25 461.96,-559.25 461.96,-565.25 455.96,-571.25 449.96,-571.25"/>
<text xml:space="preserve" text-anchor="middle" x="415.71" y="-547.83" font-family="Arial" font-size="14.00">NS_RotGelb</text>
</g>
<!-- nsauto&#45;&gt;nsrotgelb -->
<g id="edge11" class="edge">
<title>nsauto&#45;&gt;nsrotgelb</title>
<path fill="none" stroke="black" d="M432.67,-607.89C430.19,-600.04 427.27,-590.8 424.55,-582.22"/>
<polygon fill="black" stroke="black" points="427.97,-581.42 421.62,-572.94 421.3,-583.53 427.97,-581.42"/>
</g>
<!-- nsgelb -->
<g id="node10" class="node">
<title>nsgelb</title>
<path fill="none" stroke="black" d="M346.46,-498.25C346.46,-498.25 298.96,-498.25 298.96,-498.25 292.96,-498.25 286.96,-492.25 286.96,-486.25 286.96,-486.25 286.96,-474.25 286.96,-474.25 286.96,-468.25 292.96,-462.25 298.96,-462.25 298.96,-462.25 346.46,-462.25 346.46,-462.25 352.46,-462.25 358.46,-468.25 358.46,-474.25 358.46,-474.25 358.46,-486.25 358.46,-486.25 358.46,-492.25 352.46,-498.25 346.46,-498.25"/>
<text xml:space="preserve" text-anchor="middle" x="322.71" y="-474.82" font-family="Arial" font-size="14.00">NS_Gelb</text>
</g>
<!-- nsrotgelb&#45;&gt;nsgelb -->
<g id="edge12" class="edge">
<title>nsrotgelb&#45;&gt;nsgelb</title>
<path fill="none" stroke="black" d="M393.2,-535.06C381.52,-526.15 367.06,-515.11 354.28,-505.35"/>
<polygon fill="black" stroke="black" points="356.61,-502.73 346.54,-499.44 352.37,-508.29 356.61,-502.73"/>
</g>
<!-- checkns -->
<g id="node11" class="node">
<title>checkns</title>
<path fill="none" stroke="black" d="M183.76,-424.15C183.76,-424.15 11.95,-408.35 11.95,-408.35 5.97,-407.8 5.97,-406.7 11.95,-406.15 11.95,-406.15 183.76,-390.35 183.76,-390.35 189.74,-389.8 201.69,-389.8 207.66,-390.35 207.66,-390.35 379.47,-406.15 379.47,-406.15 385.45,-406.7 385.45,-407.8 379.47,-408.35 379.47,-408.35 207.66,-424.15 207.66,-424.15 201.69,-424.7 189.74,-424.7 183.76,-424.15"/>
<text xml:space="preserve" text-anchor="middle" x="195.71" y="-401.82" font-family="Arial" font-size="14.00">Fußgängeranforderung für N/S?</text>
</g>
<!-- nsgelb&#45;&gt;checkns -->
<g id="edge13" class="edge">
<title>nsgelb&#45;&gt;checkns</title>
<path fill="none" stroke="black" d="M291.64,-461.88C273.8,-451.91 251.28,-439.32 232.55,-428.85"/>
<polygon fill="black" stroke="black" points="234.34,-425.84 223.91,-424.01 230.93,-431.95 234.34,-425.84"/>
</g>
<!-- nswait -->
<g id="node12" class="node">
<title>nswait</title>
<path fill="none" stroke="black" d="M261.84,-336C261.84,-336 141.59,-336 141.59,-336 135.59,-336 129.59,-330 129.59,-324 129.59,-324 129.59,-312 129.59,-312 129.59,-306 135.59,-300 141.59,-300 141.59,-300 261.84,-300 261.84,-300 267.84,-300 273.84,-306 273.84,-312 273.84,-312 273.84,-324 273.84,-324 273.84,-330 267.84,-336 261.84,-336"/>
<text xml:space="preserve" text-anchor="middle" x="201.71" y="-312.57" font-family="Arial" font-size="14.00">NS_FußgängerWarte</text>
</g>
<!-- checkns&#45;&gt;nswait -->
<g id="edge14" class="edge">
<title>checkns&#45;&gt;nswait</title>
<path fill="none" stroke="black" d="M196.9,-389.01C197.71,-377.18 198.81,-361.2 199.75,-347.5"/>
<polygon fill="black" stroke="black" points="203.23,-347.93 200.42,-337.71 196.25,-347.45 203.23,-347.93"/>
<text xml:space="preserve" text-anchor="middle" x="206" y="-357.95" font-family="Times,serif" font-size="14.00">Ja</text>
</g>
<!-- back -->
<g id="node23" class="node">
<title>back</title>
<path fill="none" stroke="black" d="M592.84,-117C592.84,-117 406.59,-117 406.59,-117 400.59,-117 394.59,-111 394.59,-105 394.59,-105 394.59,-93 394.59,-93 394.59,-87 400.59,-81 406.59,-81 406.59,-81 592.84,-81 592.84,-81 598.84,-81 604.84,-87 604.84,-93 604.84,-93 604.84,-105 604.84,-105 604.84,-111 598.84,-117 592.84,-117"/>
<text xml:space="preserve" text-anchor="middle" x="499.71" y="-93.58" font-family="Arial" font-size="14.00">Zur All_Rot&#45;Phase zurückkehren</text>
</g>
<!-- checkns&#45;&gt;back -->
<g id="edge15" class="edge">
<title>checkns&#45;&gt;back</title>
<path fill="none" stroke="black" d="M279.07,-396.47C324.56,-385.97 371.71,-364.19 371.71,-319 371.71,-319 371.71,-319 371.71,-171 371.71,-148.29 387.31,-132.78 407.62,-122.22"/>
<polygon fill="black" stroke="black" points="408.96,-125.45 416.55,-118.06 406.01,-119.11 408.96,-125.45"/>
<text xml:space="preserve" text-anchor="middle" x="388.59" y="-240.32" font-family="Times,serif" font-size="14.00">Nein</text>
</g>
<!-- nsfgreen -->
<g id="node13" class="node">
<title>nsfgreen</title>
<path fill="none" stroke="black" d="M287.96,-263C287.96,-263 165.46,-263 165.46,-263 159.46,-263 153.46,-257 153.46,-251 153.46,-251 153.46,-239 153.46,-239 153.46,-233 159.46,-227 165.46,-227 165.46,-227 287.96,-227 287.96,-227 293.96,-227 299.96,-233 299.96,-239 299.96,-239 299.96,-251 299.96,-251 299.96,-257 293.96,-263 287.96,-263"/>
<text xml:space="preserve" text-anchor="middle" x="226.71" y="-239.57" font-family="Arial" font-size="14.00">NS_FußgängerGruen</text>
</g>
<!-- nswait&#45;&gt;nsfgreen -->
<g id="edge16" class="edge">
<title>nswait&#45;&gt;nsfgreen</title>
<path fill="none" stroke="black" d="M207.76,-299.81C210.53,-291.96 213.87,-282.47 216.97,-273.66"/>
<polygon fill="black" stroke="black" points="220.19,-275.05 220.21,-264.46 213.59,-272.73 220.19,-275.05"/>
</g>
<!-- resetns -->
<g id="node14" class="node">
<title>resetns</title>
<path fill="none" stroke="black" d="M330.59,-190C330.59,-190 190.84,-190 190.84,-190 184.84,-190 178.84,-184 178.84,-178 178.84,-178 178.84,-166 178.84,-166 178.84,-160 184.84,-154 190.84,-154 190.84,-154 330.59,-154 330.59,-154 336.59,-154 342.59,-160 342.59,-166 342.59,-166 342.59,-178 342.59,-178 342.59,-184 336.59,-190 330.59,-190"/>
<text xml:space="preserve" text-anchor="middle" x="260.71" y="-166.57" font-family="Arial" font-size="14.00">NS&#45;Anforderung löschen</text>
</g>
<!-- nsfgreen&#45;&gt;resetns -->
<g id="edge17" class="edge">
<title>nsfgreen&#45;&gt;resetns</title>
<path fill="none" stroke="black" d="M234.94,-226.81C238.74,-218.88 243.35,-209.26 247.61,-200.36"/>
<polygon fill="black" stroke="black" points="250.74,-201.92 251.9,-191.39 244.43,-198.9 250.74,-201.92"/>
</g>
<!-- resetns&#45;&gt;back -->
<g id="edge18" class="edge">
<title>resetns&#45;&gt;back</title>
<path fill="none" stroke="black" d="M304.29,-153.62C320.87,-147.33 340.03,-140.44 357.71,-135 374.79,-129.74 393.22,-124.73 410.95,-120.23"/>
<polygon fill="black" stroke="black" points="411.57,-123.68 420.42,-117.86 409.87,-116.89 411.57,-123.68"/>
</g>
<!-- ewrotgelb -->
<g id="node16" class="node">
<title>ewrotgelb</title>
<path fill="none" stroke="black" d="M646.84,-571.25C646.84,-571.25 574.59,-571.25 574.59,-571.25 568.59,-571.25 562.59,-565.25 562.59,-559.25 562.59,-559.25 562.59,-547.25 562.59,-547.25 562.59,-541.25 568.59,-535.25 574.59,-535.25 574.59,-535.25 646.84,-535.25 646.84,-535.25 652.84,-535.25 658.84,-541.25 658.84,-547.25 658.84,-547.25 658.84,-559.25 658.84,-559.25 658.84,-565.25 652.84,-571.25 646.84,-571.25"/>
<text xml:space="preserve" text-anchor="middle" x="610.71" y="-547.83" font-family="Arial" font-size="14.00">EW_RotGelb</text>
</g>
<!-- ewauto&#45;&gt;ewrotgelb -->
<g id="edge19" class="edge">
<title>ewauto&#45;&gt;ewrotgelb</title>
<path fill="none" stroke="black" d="M610.71,-607.89C610.71,-600.22 610.71,-591.22 610.71,-582.8"/>
<polygon fill="black" stroke="black" points="614.21,-583.01 610.71,-573.01 607.21,-583.01 614.21,-583.01"/>
</g>
<!-- ewgelb -->
<g id="node17" class="node">
<title>ewgelb</title>
<path fill="none" stroke="black" d="M636.34,-498.25C636.34,-498.25 585.09,-498.25 585.09,-498.25 579.09,-498.25 573.09,-492.25 573.09,-486.25 573.09,-486.25 573.09,-474.25 573.09,-474.25 573.09,-468.25 579.09,-462.25 585.09,-462.25 585.09,-462.25 636.34,-462.25 636.34,-462.25 642.34,-462.25 648.34,-468.25 648.34,-474.25 648.34,-474.25 648.34,-486.25 648.34,-486.25 648.34,-492.25 642.34,-498.25 636.34,-498.25"/>
<text xml:space="preserve" text-anchor="middle" x="610.71" y="-474.82" font-family="Arial" font-size="14.00">EW_Gelb</text>
</g>
<!-- ewrotgelb&#45;&gt;ewgelb -->
<g id="edge20" class="edge">
<title>ewrotgelb&#45;&gt;ewgelb</title>
<path fill="none" stroke="black" d="M610.71,-535.06C610.71,-527.48 610.71,-518.35 610.71,-509.79"/>
<polygon fill="black" stroke="black" points="614.21,-509.79 610.71,-499.79 607.21,-509.79 614.21,-509.79"/>
</g>
<!-- checkew -->
<g id="node18" class="node">
<title>checkew</title>
<path fill="none" stroke="black" d="M598.76,-424.18C598.76,-424.18 421.31,-408.32 421.31,-408.32 415.33,-407.78 415.33,-406.72 421.31,-406.18 421.31,-406.18 598.76,-390.32 598.76,-390.32 604.73,-389.78 616.69,-389.78 622.66,-390.32 622.66,-390.32 800.11,-406.18 800.11,-406.18 806.09,-406.72 806.09,-407.78 800.11,-408.32 800.11,-408.32 622.66,-424.18 622.66,-424.18 616.69,-424.72 604.73,-424.72 598.76,-424.18"/>
<text xml:space="preserve" text-anchor="middle" x="610.71" y="-401.82" font-family="Arial" font-size="14.00">Fußgängeranforderung für O/W?</text>
</g>
<!-- ewgelb&#45;&gt;checkew -->
<g id="edge21" class="edge">
<title>ewgelb&#45;&gt;checkew</title>
<path fill="none" stroke="black" d="M610.71,-462.06C610.71,-454.48 610.71,-445.35 610.71,-436.79"/>
<polygon fill="black" stroke="black" points="614.21,-436.79 610.71,-426.79 607.21,-436.79 614.21,-436.79"/>
</g>
<!-- ewwait -->
<g id="node19" class="node">
<title>ewwait</title>
<path fill="none" stroke="black" d="M566.71,-336C566.71,-336 442.71,-336 442.71,-336 436.71,-336 430.71,-330 430.71,-324 430.71,-324 430.71,-312 430.71,-312 430.71,-306 436.71,-300 442.71,-300 442.71,-300 566.71,-300 566.71,-300 572.71,-300 578.71,-306 578.71,-312 578.71,-312 578.71,-324 578.71,-324 578.71,-330 572.71,-336 566.71,-336"/>
<text xml:space="preserve" text-anchor="middle" x="504.71" y="-312.57" font-family="Arial" font-size="14.00">EW_FußgängerWarte</text>
</g>
<!-- checkew&#45;&gt;ewwait -->
<g id="edge22" class="edge">
<title>checkew&#45;&gt;ewwait</title>
<path fill="none" stroke="black" d="M591.76,-390.65C575.87,-377.57 552.89,-358.65 534.53,-343.54"/>
<polygon fill="black" stroke="black" points="536.79,-340.87 526.84,-337.22 532.34,-346.28 536.79,-340.87"/>
<text xml:space="preserve" text-anchor="middle" x="573.95" y="-357.95" font-family="Times,serif" font-size="14.00">Ja</text>
</g>
<!-- checkew&#45;&gt;back -->
<g id="edge23" class="edge">
<title>checkew&#45;&gt;back</title>
<path fill="none" stroke="black" d="M610.71,-388.87C610.71,-371.26 610.71,-343.24 610.71,-319 610.71,-319 610.71,-319 610.71,-171 610.71,-148.79 594.74,-133.21 574.92,-122.43"/>
<polygon fill="black" stroke="black" points="576.48,-119.3 565.96,-118.04 573.4,-125.58 576.48,-119.3"/>
<text xml:space="preserve" text-anchor="middle" x="627.59" y="-240.32" font-family="Times,serif" font-size="14.00">Nein</text>
</g>
<!-- ewfgreen -->
<g id="node20" class="node">
<title>ewfgreen</title>
<path fill="none" stroke="black" d="M562.84,-263C562.84,-263 436.59,-263 436.59,-263 430.59,-263 424.59,-257 424.59,-251 424.59,-251 424.59,-239 424.59,-239 424.59,-233 430.59,-227 436.59,-227 436.59,-227 562.84,-227 562.84,-227 568.84,-227 574.84,-233 574.84,-239 574.84,-239 574.84,-251 574.84,-251 574.84,-257 568.84,-263 562.84,-263"/>
<text xml:space="preserve" text-anchor="middle" x="499.71" y="-239.57" font-family="Arial" font-size="14.00">EW_FußgängerGruen</text>
</g>
<!-- ewwait&#45;&gt;ewfgreen -->
<g id="edge24" class="edge">
<title>ewwait&#45;&gt;ewfgreen</title>
<path fill="none" stroke="black" d="M503.5,-299.81C502.96,-292.14 502.31,-282.89 501.7,-274.24"/>
<polygon fill="black" stroke="black" points="505.21,-274.27 501.02,-264.54 498.23,-274.76 505.21,-274.27"/>
</g>
<!-- resete_w -->
<g id="node25" class="node">
<title>resete_w</title>
<path fill="none" stroke="black" d="M523.09,-190C523.09,-190 476.34,-190 476.34,-190 470.34,-190 464.34,-184 464.34,-178 464.34,-178 464.34,-166 464.34,-166 464.34,-160 470.34,-154 476.34,-154 476.34,-154 523.09,-154 523.09,-154 529.09,-154 535.09,-160 535.09,-166 535.09,-166 535.09,-178 535.09,-178 535.09,-184 529.09,-190 523.09,-190"/>
<text xml:space="preserve" text-anchor="middle" x="499.71" y="-166.57" font-family="Arial" font-size="14.00">resete_w</text>
</g>
<!-- ewfgreen&#45;&gt;resete_w -->
<g id="edge25" class="edge">
<title>ewfgreen&#45;&gt;resete_w</title>
<path fill="none" stroke="black" d="M499.71,-226.81C499.71,-219.23 499.71,-210.1 499.71,-201.54"/>
<polygon fill="black" stroke="black" points="503.21,-201.54 499.71,-191.54 496.21,-201.54 503.21,-201.54"/>
</g>
<!-- resete -->
<g id="node21" class="node">
<title>resete</title>
<path fill="none" stroke="black" d="M544.71,-1079C544.71,-1079 514.71,-1079 514.71,-1079 508.71,-1079 502.71,-1073 502.71,-1067 502.71,-1067 502.71,-1055 502.71,-1055 502.71,-1049 508.71,-1043 514.71,-1043 514.71,-1043 544.71,-1043 544.71,-1043 550.71,-1043 556.71,-1049 556.71,-1055 556.71,-1055 556.71,-1067 556.71,-1067 556.71,-1073 550.71,-1079 544.71,-1079"/>
<text xml:space="preserve" text-anchor="middle" x="529.71" y="-1055.58" font-family="Arial" font-size="14.00">resete</text>
</g>
<!-- w -->
<g id="node22" class="node">
<title>w</title>
<path fill="none" stroke="black" d="M729.09,-1079C729.09,-1079 586.34,-1079 586.34,-1079 580.34,-1079 574.34,-1073 574.34,-1067 574.34,-1067 574.34,-1055 574.34,-1055 574.34,-1049 580.34,-1043 586.34,-1043 586.34,-1043 729.09,-1043 729.09,-1043 735.09,-1043 741.09,-1049 741.09,-1055 741.09,-1055 741.09,-1067 741.09,-1067 741.09,-1073 735.09,-1079 729.09,-1079"/>
<text xml:space="preserve" text-anchor="middle" x="657.71" y="-1055.58" font-family="Arial" font-size="14.00">EW&#45;Anforderung löschen</text>
</g>
<!-- back&#45;&gt;wait -->
<g id="edge27" class="edge">
<title>back&#45;&gt;wait</title>
<path fill="none" stroke="black" d="M604.96,-102C704.81,-106.84 839.71,-122.38 839.71,-171 839.71,-837.75 839.71,-837.75 839.71,-837.75 839.71,-887.12 712.21,-903.63 606.3,-908.83"/>
<polygon fill="black" stroke="black" points="606.16,-905.33 596.33,-909.28 606.48,-912.32 606.16,-905.33"/>
</g>
<!-- end -->
<g id="node24" class="node">
<title>end</title>
<ellipse fill="none" stroke="black" cx="499.71" cy="-22" rx="18" ry="18"/>
<ellipse fill="none" stroke="black" cx="499.71" cy="-22" rx="22" ry="22"/>
<text xml:space="preserve" text-anchor="middle" x="499.71" y="-16.57" font-family="Arial" font-size="14.00">Ende</text>
</g>
<!-- back&#45;&gt;end -->
<g id="edge28" class="edge">
<title>back&#45;&gt;end</title>
<path fill="none" stroke="black" d="M499.71,-80.6C499.71,-73.17 499.71,-64.23 499.71,-55.64"/>
<polygon fill="black" stroke="black" points="503.21,-55.83 499.71,-45.83 496.21,-55.83 503.21,-55.83"/>
</g>
<!-- resete_w&#45;&gt;back -->
<g id="edge26" class="edge">
<title>resete_w&#45;&gt;back</title>
<path fill="none" stroke="black" d="M499.71,-153.81C499.71,-146.23 499.71,-137.1 499.71,-128.54"/>
<polygon fill="black" stroke="black" points="503.21,-128.54 499.71,-118.54 496.21,-128.54 503.21,-128.54"/>
</g>
</g>
</svg>
